<svg width="216" height="14" viewBox="0 0 216 14" fill="none" xmlns="http://www.w3.org/2000/svg">
<path d="M5.852 11.084C4.88133 11.084 4.004 10.8693 3.22 10.44C2.44533 10.0107 1.834 9.418 1.386 8.662C0.947333 7.89667 0.728 7.04267 0.728 6.1C0.728 5.15733 0.947333 4.308 1.386 3.552C1.834 2.78667 2.45 2.18933 3.234 1.76C4.018 1.33067 4.89533 1.116 5.866 1.116C6.594 1.116 7.266 1.23733 7.882 1.48C8.498 1.72267 9.02067 2.07733 9.45 2.544L8.792 3.202C8.02667 2.42733 7.06067 2.04 5.894 2.04C5.11933 2.04 4.41467 2.21733 3.78 2.572C3.14533 2.92667 2.646 3.412 2.282 4.028C1.92733 4.644 1.75 5.33467 1.75 6.1C1.75 6.86533 1.92733 7.556 2.282 8.172C2.646 8.788 3.14533 9.27333 3.78 9.628C4.41467 9.98267 5.11933 10.16 5.894 10.16C7.07 10.16 8.036 9.768 8.792 8.984L9.45 9.642C9.02067 10.1087 8.49333 10.468 7.868 10.72C7.252 10.9627 6.58 11.084 5.852 11.084ZM14.1304 11.07C13.421 11.07 12.7817 10.9113 12.2124 10.594C11.643 10.2673 11.195 9.81933 10.8684 9.25C10.5417 8.68067 10.3784 8.03667 10.3784 7.318C10.3784 6.59933 10.5417 5.95533 10.8684 5.386C11.195 4.81667 11.643 4.37333 12.2124 4.056C12.7817 3.73867 13.421 3.58 14.1304 3.58C14.8397 3.58 15.479 3.73867 16.0484 4.056C16.6177 4.37333 17.061 4.81667 17.3784 5.386C17.705 5.95533 17.8684 6.59933 17.8684 7.318C17.8684 8.03667 17.705 8.68067 17.3784 9.25C17.061 9.81933 16.6177 10.2673 16.0484 10.594C15.479 10.9113 14.8397 11.07 14.1304 11.07ZM14.1304 10.188C14.653 10.188 15.1197 10.0713 15.5304 9.838C15.9504 9.59533 16.277 9.25467 16.5104 8.816C16.7437 8.37733 16.8604 7.878 16.8604 7.318C16.8604 6.758 16.7437 6.25867 16.5104 5.82C16.277 5.38133 15.9504 5.04533 15.5304 4.812C15.1197 4.56933 14.653 4.448 14.1304 4.448C13.6077 4.448 13.1364 4.56933 12.7164 4.812C12.3057 5.04533 11.979 5.38133 11.7364 5.82C11.503 6.25867 11.3864 6.758 11.3864 7.318C11.3864 7.878 11.503 8.37733 11.7364 8.816C11.979 9.25467 12.3057 9.59533 12.7164 9.838C13.1364 10.0713 13.6077 10.188 14.1304 10.188ZM23.6917 3.58C24.3824 3.58 25.0077 3.73867 25.5677 4.056C26.1277 4.364 26.5664 4.80267 26.8837 5.372C27.2011 5.94133 27.3597 6.59 27.3597 7.318C27.3597 8.05533 27.2011 8.70867 26.8837 9.278C26.5664 9.84733 26.1277 10.2907 25.5677 10.608C25.0171 10.916 24.3917 11.07 23.6917 11.07C23.0944 11.07 22.5531 10.9487 22.0677 10.706C21.5917 10.454 21.1997 10.09 20.8917 9.614V13.716H19.8977V3.636H20.8497V5.092C21.1484 4.60667 21.5404 4.23333 22.0257 3.972C22.5204 3.71067 23.0757 3.58 23.6917 3.58ZM23.6217 10.188C24.1351 10.188 24.6017 10.0713 25.0217 9.838C25.4417 9.59533 25.7684 9.25467 26.0017 8.816C26.2444 8.37733 26.3657 7.878 26.3657 7.318C26.3657 6.758 26.2444 6.26333 26.0017 5.834C25.7684 5.39533 25.4417 5.05467 25.0217 4.812C24.6017 4.56933 24.1351 4.448 23.6217 4.448C23.0991 4.448 22.6277 4.56933 22.2077 4.812C21.7971 5.05467 21.4704 5.39533 21.2277 5.834C20.9944 6.26333 20.8777 6.758 20.8777 7.318C20.8777 7.878 20.9944 8.37733 21.2277 8.816C21.4704 9.25467 21.7971 9.59533 22.2077 9.838C22.6277 10.0713 23.0991 10.188 23.6217 10.188ZM35.3689 3.636L31.6869 11.882C31.3883 12.5727 31.0429 13.0627 30.6509 13.352C30.2589 13.6413 29.7876 13.786 29.2369 13.786C28.8823 13.786 28.5509 13.73 28.2429 13.618C27.9349 13.506 27.6689 13.338 27.4449 13.114L27.9069 12.372C28.2803 12.7453 28.7283 12.932 29.2509 12.932C29.5869 12.932 29.8716 12.8387 30.1049 12.652C30.3476 12.4653 30.5716 12.148 30.7769 11.7L31.0989 10.986L27.8089 3.636H28.8449L31.6169 9.894L34.3889 3.636H35.3689ZM37.7208 5.078C37.9541 4.58333 38.2995 4.21 38.7568 3.958C39.2235 3.706 39.7975 3.58 40.4788 3.58V4.546L40.2408 4.532C39.4661 4.532 38.8595 4.77 38.4208 5.246C37.9821 5.722 37.7628 6.38933 37.7628 7.248V11H36.7688V3.636H37.7208V5.078ZM42.2786 3.636H43.2726V11H42.2786V3.636ZM42.7826 2.026C42.5772 2.026 42.4046 1.956 42.2646 1.816C42.1246 1.676 42.0546 1.508 42.0546 1.312C42.0546 1.12533 42.1246 0.962 42.2646 0.821999C42.4046 0.681999 42.5772 0.611999 42.7826 0.611999C42.9879 0.611999 43.1606 0.681999 43.3006 0.821999C43.4406 0.952666 43.5106 1.11133 43.5106 1.298C43.5106 1.50333 43.4406 1.676 43.3006 1.816C43.1606 1.956 42.9879 2.026 42.7826 2.026ZM52.8563 3.636V10.104C52.8563 11.3547 52.5483 12.2787 51.9323 12.876C51.3257 13.4827 50.4063 13.786 49.1743 13.786C48.493 13.786 47.8443 13.6833 47.2283 13.478C46.6217 13.282 46.127 13.0067 45.7443 12.652L46.2483 11.896C46.603 12.2133 47.0323 12.4607 47.5363 12.638C48.0497 12.8153 48.5863 12.904 49.1463 12.904C50.0797 12.904 50.7657 12.6847 51.2043 12.246C51.643 11.8167 51.8623 11.1447 51.8623 10.23V9.292C51.5543 9.75867 51.1483 10.1133 50.6443 10.356C50.1497 10.5987 49.599 10.72 48.9923 10.72C48.3017 10.72 47.6717 10.5707 47.1023 10.272C46.5423 9.964 46.099 9.53933 45.7723 8.998C45.455 8.44733 45.2963 7.82667 45.2963 7.136C45.2963 6.44533 45.455 5.82933 45.7723 5.288C46.099 4.74667 46.5423 4.32667 47.1023 4.028C47.6623 3.72933 48.2923 3.58 48.9923 3.58C49.6177 3.58 50.1823 3.706 50.6863 3.958C51.1903 4.21 51.5963 4.574 51.9043 5.05V3.636H52.8563ZM49.0903 9.838C49.6223 9.838 50.103 9.726 50.5323 9.502C50.9617 9.26867 51.293 8.94667 51.5263 8.536C51.769 8.12533 51.8903 7.65867 51.8903 7.136C51.8903 6.61333 51.769 6.15133 51.5263 5.75C51.293 5.33933 50.9617 5.022 50.5323 4.798C50.1123 4.56467 49.6317 4.448 49.0903 4.448C48.5583 4.448 48.0777 4.56 47.6483 4.784C47.2283 5.008 46.897 5.32533 46.6543 5.736C46.421 6.14667 46.3043 6.61333 46.3043 7.136C46.3043 7.65867 46.421 8.12533 46.6543 8.536C46.897 8.94667 47.2283 9.26867 47.6483 9.502C48.0777 9.726 48.5583 9.838 49.0903 9.838ZM59.388 3.58C60.312 3.58 61.0447 3.85067 61.586 4.392C62.1367 4.924 62.412 5.70333 62.412 6.73V11H61.418V6.828C61.418 6.06267 61.2267 5.47933 60.844 5.078C60.4613 4.67667 59.9153 4.476 59.206 4.476C58.4127 4.476 57.7827 4.714 57.316 5.19C56.8587 5.65667 56.63 6.30533 56.63 7.136V11H55.636V0.611999H56.63V4.924C56.9007 4.49467 57.274 4.16333 57.75 3.93C58.226 3.69667 58.772 3.58 59.388 3.58ZM68.9886 10.552C68.8019 10.72 68.5686 10.8507 68.2886 10.944C68.0179 11.028 67.7333 11.07 67.4346 11.07C66.7439 11.07 66.2119 10.8833 65.8386 10.51C65.4653 10.1367 65.2786 9.60933 65.2786 8.928V4.476H63.9626V3.636H65.2786V2.026H66.2726V3.636H68.5126V4.476H66.2726V8.872C66.2726 9.31067 66.3799 9.64667 66.5946 9.88C66.8186 10.104 67.1359 10.216 67.5466 10.216C67.7519 10.216 67.9479 10.1833 68.1346 10.118C68.3306 10.0527 68.4986 9.95933 68.6386 9.838L68.9886 10.552ZM72.7721 11.07C72.1748 11.07 71.6008 10.986 71.0501 10.818C70.5088 10.6407 70.0841 10.4213 69.7761 10.16L70.2241 9.376C70.5321 9.61867 70.9194 9.81933 71.3861 9.978C71.8528 10.1273 72.3381 10.202 72.8421 10.202C73.5141 10.202 74.0088 10.0993 74.3261 9.894C74.6528 9.67933 74.8161 9.38067 74.8161 8.998C74.8161 8.72733 74.7274 8.51733 74.5501 8.368C74.3728 8.20933 74.1488 8.09267 73.8781 8.018C73.6074 7.934 73.2481 7.85467 72.8001 7.78C72.2028 7.668 71.7221 7.556 71.3581 7.444C70.9941 7.32267 70.6814 7.122 70.4201 6.842C70.1681 6.562 70.0421 6.17467 70.0421 5.68C70.0421 5.064 70.2988 4.56 70.8121 4.168C71.3254 3.776 72.0394 3.58 72.9541 3.58C73.4301 3.58 73.9061 3.64533 74.3821 3.776C74.8581 3.89733 75.2501 4.06067 75.5581 4.266L75.1241 5.064C74.5174 4.644 73.7941 4.434 72.9541 4.434C72.3194 4.434 71.8388 4.546 71.5121 4.77C71.1948 4.994 71.0361 5.288 71.0361 5.652C71.0361 5.932 71.1248 6.156 71.3021 6.324C71.4888 6.492 71.7174 6.618 71.9881 6.702C72.2588 6.77667 72.6321 6.856 73.1081 6.94C73.6961 7.052 74.1674 7.164 74.5221 7.276C74.8768 7.388 75.1801 7.57933 75.4321 7.85C75.6841 8.12067 75.8101 8.494 75.8101 8.97C75.8101 9.614 75.5394 10.1273 74.9981 10.51C74.4661 10.8833 73.7241 11.07 72.7721 11.07ZM85.5818 11.042C84.6671 11.042 83.8318 10.8227 83.0758 10.384C82.3291 9.94533 81.7364 9.348 81.2978 8.592C80.8684 7.836 80.6538 7.00533 80.6538 6.1C80.6538 5.19467 80.8684 4.364 81.2978 3.608C81.7364 2.852 82.3338 2.25467 83.0898 1.816C83.8458 1.37733 84.6858 1.158 85.6098 1.158C86.5338 1.158 87.3691 1.37267 88.1158 1.802C88.8718 2.23133 89.4644 2.824 89.8938 3.58C90.3231 4.32667 90.5378 5.15733 90.5378 6.072C90.5378 6.98667 90.3184 7.82667 89.8798 8.592C89.4411 9.348 88.8438 9.94533 88.0878 10.384C87.3318 10.8227 86.4964 11.042 85.5818 11.042ZM85.5818 10.524C86.4031 10.524 87.1498 10.328 87.8218 9.936C88.4938 9.53467 89.0258 8.998 89.4178 8.326C89.8098 7.64467 90.0058 6.89333 90.0058 6.072C90.0058 5.25067 89.8144 4.50867 89.4318 3.846C89.0491 3.174 88.5218 2.64667 87.8498 2.264C87.1871 1.872 86.4404 1.676 85.6098 1.676C84.7791 1.676 84.0231 1.872 83.3418 2.264C82.6698 2.656 82.1378 3.19267 81.7458 3.874C81.3631 4.546 81.1718 5.288 81.1718 6.1C81.1718 6.912 81.3631 7.65867 81.7458 8.34C82.1378 9.012 82.6698 9.544 83.3418 9.936C84.0138 10.328 84.7604 10.524 85.5818 10.524ZM85.7078 9.012C85.1571 9.012 84.6578 8.89067 84.2098 8.648C83.7711 8.396 83.4258 8.05067 83.1738 7.612C82.9218 7.164 82.7958 6.66 82.7958 6.1C82.7958 5.54 82.9218 5.04067 83.1738 4.602C83.4258 4.154 83.7711 3.80867 84.2098 3.566C84.6578 3.314 85.1571 3.188 85.7078 3.188C86.1838 3.188 86.6131 3.286 86.9958 3.482C87.3878 3.66867 87.7004 3.93 87.9338 4.266L87.3318 4.714C87.1358 4.44333 86.8978 4.24267 86.6178 4.112C86.3378 3.98133 86.0298 3.916 85.6938 3.916C85.0871 3.916 84.5831 4.11667 84.1818 4.518C83.7898 4.91933 83.5938 5.44667 83.5938 6.1C83.5938 6.75333 83.7898 7.28067 84.1818 7.682C84.5831 8.08333 85.0871 8.284 85.6938 8.284C86.0298 8.284 86.3378 8.21867 86.6178 8.088C86.8978 7.95733 87.1358 7.75667 87.3318 7.486L87.9338 7.92C87.7004 8.26533 87.3878 8.536 86.9958 8.732C86.6131 8.91867 86.1838 9.012 85.7078 9.012ZM102.33 10.104V11H95.4562V10.286L99.5302 6.296C100.043 5.792 100.389 5.358 100.566 4.994C100.753 4.62067 100.846 4.24733 100.846 3.874C100.846 3.29533 100.645 2.84733 100.244 2.53C99.8522 2.20333 99.2875 2.04 98.5502 2.04C97.4022 2.04 96.5108 2.404 95.8762 3.132L95.1622 2.516C95.5448 2.068 96.0302 1.72267 96.6182 1.48C97.2155 1.23733 97.8875 1.116 98.6342 1.116C99.6328 1.116 100.421 1.354 101 1.83C101.588 2.29667 101.882 2.94067 101.882 3.762C101.882 4.266 101.77 4.75133 101.546 5.218C101.322 5.68467 100.897 6.22133 100.272 6.828L96.9402 10.104H102.33ZM107.447 11.084C106.691 11.084 106.014 10.8833 105.417 10.482C104.829 10.0807 104.367 9.50667 104.031 8.76C103.704 8.004 103.541 7.11733 103.541 6.1C103.541 5.08267 103.704 4.20067 104.031 3.454C104.367 2.698 104.829 2.11933 105.417 1.718C106.014 1.31667 106.691 1.116 107.447 1.116C108.203 1.116 108.875 1.31667 109.463 1.718C110.06 2.11933 110.527 2.698 110.863 3.454C111.199 4.20067 111.367 5.08267 111.367 6.1C111.367 7.11733 111.199 8.004 110.863 8.76C110.527 9.50667 110.06 10.0807 109.463 10.482C108.875 10.8833 108.203 11.084 107.447 11.084ZM107.447 10.16C108.016 10.16 108.515 10.0013 108.945 9.684C109.383 9.36667 109.724 8.90467 109.967 8.298C110.209 7.69133 110.331 6.95867 110.331 6.1C110.331 5.24133 110.209 4.50867 109.967 3.902C109.724 3.29533 109.383 2.83333 108.945 2.516C108.515 2.19867 108.016 2.04 107.447 2.04C106.877 2.04 106.373 2.19867 105.935 2.516C105.505 2.83333 105.169 3.29533 104.927 3.902C104.684 4.50867 104.562 5.24133 104.562 6.1C104.562 6.95867 104.684 7.69133 104.927 8.298C105.169 8.90467 105.505 9.36667 105.935 9.684C106.373 10.0013 106.877 10.16 107.447 10.16ZM119.475 10.104V11H112.601V10.286L116.675 6.296C117.188 5.792 117.533 5.358 117.711 4.994C117.897 4.62067 117.991 4.24733 117.991 3.874C117.991 3.29533 117.79 2.84733 117.389 2.53C116.997 2.20333 116.432 2.04 115.695 2.04C114.547 2.04 113.655 2.404 113.021 3.132L112.307 2.516C112.689 2.068 113.175 1.72267 113.763 1.48C114.36 1.23733 115.032 1.116 115.779 1.116C116.777 1.116 117.566 1.354 118.145 1.83C118.733 2.29667 119.027 2.94067 119.027 3.762C119.027 4.266 118.915 4.75133 118.691 5.218C118.467 5.68467 118.042 6.22133 117.417 6.828L114.085 10.104H119.475ZM124.591 11.084C123.835 11.084 123.158 10.8833 122.561 10.482C121.973 10.0807 121.511 9.50667 121.175 8.76C120.848 8.004 120.685 7.11733 120.685 6.1C120.685 5.08267 120.848 4.20067 121.175 3.454C121.511 2.698 121.973 2.11933 122.561 1.718C123.158 1.31667 123.835 1.116 124.591 1.116C125.347 1.116 126.019 1.31667 126.607 1.718C127.204 2.11933 127.671 2.698 128.007 3.454C128.343 4.20067 128.511 5.08267 128.511 6.1C128.511 7.11733 128.343 8.004 128.007 8.76C127.671 9.50667 127.204 10.0807 126.607 10.482C126.019 10.8833 125.347 11.084 124.591 11.084ZM124.591 10.16C125.16 10.16 125.66 10.0013 126.089 9.684C126.528 9.36667 126.868 8.90467 127.111 8.298C127.354 7.69133 127.475 6.95867 127.475 6.1C127.475 5.24133 127.354 4.50867 127.111 3.902C126.868 3.29533 126.528 2.83333 126.089 2.516C125.66 2.19867 125.16 2.04 124.591 2.04C124.022 2.04 123.518 2.19867 123.079 2.516C122.65 2.83333 122.314 3.29533 122.071 3.902C121.828 4.50867 121.707 5.24133 121.707 6.1C121.707 6.95867 121.828 7.69133 122.071 8.298C122.314 8.90467 122.65 9.36667 123.079 9.684C123.518 10.0013 124.022 10.16 124.591 10.16ZM144.665 1.2V11H143.671V3.16L139.821 9.754H139.331L135.481 3.202V11H134.487V1.2H135.341L139.597 8.466L143.811 1.2H144.665ZM150.658 11.07C149.948 11.07 149.309 10.9113 148.74 10.594C148.17 10.2673 147.722 9.81933 147.396 9.25C147.069 8.68067 146.906 8.03667 146.906 7.318C146.906 6.59933 147.069 5.95533 147.396 5.386C147.722 4.81667 148.17 4.37333 148.74 4.056C149.309 3.73867 149.948 3.58 150.658 3.58C151.367 3.58 152.006 3.73867 152.576 4.056C153.145 4.37333 153.588 4.81667 153.906 5.386C154.232 5.95533 154.396 6.59933 154.396 7.318C154.396 8.03667 154.232 8.68067 153.906 9.25C153.588 9.81933 153.145 10.2673 152.576 10.594C152.006 10.9113 151.367 11.07 150.658 11.07ZM150.658 10.188C151.18 10.188 151.647 10.0713 152.058 9.838C152.478 9.59533 152.804 9.25467 153.038 8.816C153.271 8.37733 153.388 7.878 153.388 7.318C153.388 6.758 153.271 6.25867 153.038 5.82C152.804 5.38133 152.478 5.04533 152.058 4.812C151.647 4.56933 151.18 4.448 150.658 4.448C150.135 4.448 149.664 4.56933 149.244 4.812C148.833 5.04533 148.506 5.38133 148.264 5.82C148.03 6.25867 147.914 6.758 147.914 7.318C147.914 7.878 148.03 8.37733 148.264 8.816C148.506 9.25467 148.833 9.59533 149.244 9.838C149.664 10.0713 150.135 10.188 150.658 10.188ZM160.177 3.58C161.101 3.58 161.834 3.85067 162.375 4.392C162.926 4.924 163.201 5.70333 163.201 6.73V11H162.207V6.828C162.207 6.06267 162.016 5.47933 161.633 5.078C161.25 4.67667 160.704 4.476 159.995 4.476C159.202 4.476 158.572 4.714 158.105 5.19C157.648 5.65667 157.419 6.30533 157.419 7.136V11H156.425V3.636H157.377V4.994C157.648 4.546 158.021 4.20067 158.497 3.958C158.982 3.706 159.542 3.58 160.177 3.58ZM169.778 10.552C169.591 10.72 169.358 10.8507 169.078 10.944C168.807 11.028 168.522 11.07 168.224 11.07C167.533 11.07 167.001 10.8833 166.628 10.51C166.254 10.1367 166.068 9.60933 166.068 8.928V4.476H164.752V3.636H166.068V2.026H167.062V3.636H169.302V4.476H167.062V8.872C167.062 9.31067 167.169 9.64667 167.384 9.88C167.608 10.104 167.925 10.216 168.336 10.216C168.541 10.216 168.737 10.1833 168.924 10.118C169.12 10.0527 169.288 9.95933 169.428 9.838L169.778 10.552ZM171.587 3.636H172.581V11H171.587V3.636ZM172.091 2.026C171.886 2.026 171.713 1.956 171.573 1.816C171.433 1.676 171.363 1.508 171.363 1.312C171.363 1.12533 171.433 0.962 171.573 0.821999C171.713 0.681999 171.886 0.611999 172.091 0.611999C172.297 0.611999 172.469 0.681999 172.609 0.821999C172.749 0.952666 172.819 1.11133 172.819 1.298C172.819 1.50333 172.749 1.676 172.609 1.816C172.469 1.956 172.297 2.026 172.091 2.026ZM178.399 11.07C177.671 11.07 177.018 10.9113 176.439 10.594C175.87 10.2767 175.422 9.83333 175.095 9.264C174.768 8.68533 174.605 8.03667 174.605 7.318C174.605 6.59933 174.768 5.95533 175.095 5.386C175.422 4.81667 175.87 4.37333 176.439 4.056C177.018 3.73867 177.671 3.58 178.399 3.58C179.034 3.58 179.598 3.706 180.093 3.958C180.597 4.20067 180.994 4.56 181.283 5.036L180.541 5.54C180.298 5.176 179.99 4.90533 179.617 4.728C179.244 4.54133 178.838 4.448 178.399 4.448C177.867 4.448 177.386 4.56933 176.957 4.812C176.537 5.04533 176.206 5.38133 175.963 5.82C175.73 6.25867 175.613 6.758 175.613 7.318C175.613 7.88733 175.73 8.39133 175.963 8.83C176.206 9.25933 176.537 9.59533 176.957 9.838C177.386 10.0713 177.867 10.188 178.399 10.188C178.838 10.188 179.244 10.0993 179.617 9.922C179.99 9.74467 180.298 9.474 180.541 9.11L181.283 9.614C180.994 10.09 180.597 10.454 180.093 10.706C179.589 10.9487 179.024 11.07 178.399 11.07ZM186.878 3.58C187.802 3.58 188.535 3.85067 189.076 4.392C189.627 4.924 189.902 5.70333 189.902 6.73V11H188.908V6.828C188.908 6.06267 188.717 5.47933 188.334 5.078C187.952 4.67667 187.406 4.476 186.696 4.476C185.903 4.476 185.273 4.714 184.806 5.19C184.349 5.65667 184.12 6.30533 184.12 7.136V11H183.126V0.611999H184.12V4.924C184.391 4.49467 184.764 4.16333 185.24 3.93C185.716 3.69667 186.262 3.58 186.878 3.58ZM199.04 7.626H192.88C192.936 8.39133 193.23 9.012 193.762 9.488C194.294 9.95467 194.966 10.188 195.778 10.188C196.236 10.188 196.656 10.1087 197.038 9.95C197.421 9.782 197.752 9.53933 198.032 9.222L198.592 9.866C198.266 10.258 197.855 10.5567 197.36 10.762C196.875 10.9673 196.338 11.07 195.75 11.07C194.994 11.07 194.322 10.9113 193.734 10.594C193.156 10.2673 192.703 9.81933 192.376 9.25C192.05 8.68067 191.886 8.03667 191.886 7.318C191.886 6.59933 192.04 5.95533 192.348 5.386C192.666 4.81667 193.095 4.37333 193.636 4.056C194.187 3.73867 194.803 3.58 195.484 3.58C196.166 3.58 196.777 3.73867 197.318 4.056C197.86 4.37333 198.284 4.81667 198.592 5.386C198.9 5.946 199.054 6.59 199.054 7.318L199.04 7.626ZM195.484 4.434C194.775 4.434 194.178 4.66267 193.692 5.12C193.216 5.568 192.946 6.156 192.88 6.884H198.102C198.037 6.156 197.762 5.568 197.276 5.12C196.8 4.66267 196.203 4.434 195.484 4.434ZM201.077 0.611999H202.071V11H201.077V0.611999ZM204.837 0.611999H205.831V11H204.837V0.611999ZM211.607 11.07C210.898 11.07 210.258 10.9113 209.689 10.594C209.12 10.2673 208.672 9.81933 208.345 9.25C208.018 8.68067 207.855 8.03667 207.855 7.318C207.855 6.59933 208.018 5.95533 208.345 5.386C208.672 4.81667 209.12 4.37333 209.689 4.056C210.258 3.73867 210.898 3.58 211.607 3.58C212.316 3.58 212.956 3.73867 213.525 4.056C214.094 4.37333 214.538 4.81667 214.855 5.386C215.182 5.95533 215.345 6.59933 215.345 7.318C215.345 8.03667 215.182 8.68067 214.855 9.25C214.538 9.81933 214.094 10.2673 213.525 10.594C212.956 10.9113 212.316 11.07 211.607 11.07ZM211.607 10.188C212.13 10.188 212.596 10.0713 213.007 9.838C213.427 9.59533 213.754 9.25467 213.987 8.816C214.22 8.37733 214.337 7.878 214.337 7.318C214.337 6.758 214.22 6.25867 213.987 5.82C213.754 5.38133 213.427 5.04533 213.007 4.812C212.596 4.56933 212.13 4.448 211.607 4.448C211.084 4.448 210.613 4.56933 210.193 4.812C209.782 5.04533 209.456 5.38133 209.213 5.82C208.98 6.25867 208.863 6.758 208.863 7.318C208.863 7.878 208.98 8.37733 209.213 8.816C209.456 9.25467 209.782 9.59533 210.193 9.838C210.613 10.0713 211.084 10.188 211.607 10.188Z" fill="white"/>
</svg>
